<svg width="48" height="49" viewBox="0 0 48 49" fill="none" xmlns="http://www.w3.org/2000/svg">
<path d="M33.3386 48.965C27.8261 48.965 23.357 44.4962 23.357 38.9834V18.8981C23.357 15.1573 20.296 11.9715 16.5555 12.0343C12.9202 12.0951 9.98161 15.0713 9.98161 18.7208V38.9834C9.98161 44.4958 5.51286 48.965 0 48.965V19.0164C0 9.68873 7.63307 1.89418 16.9593 2.05418C26.0173 2.20967 33.3382 9.62638 33.3382 18.7208V48.965H33.3386Z" fill="#1B1B1B"/>
<path d="M36.002 48.9649V27.0055C36.002 21.493 40.4707 17.0239 45.9835 17.0239V38.9834C45.9835 44.4962 41.5148 48.9649 36.002 48.9649Z" fill="#1B1B1B"/>
<path d="M44.4946 10.5161C46.4305 8.58013 46.4305 5.44134 44.4946 3.50538C42.5586 1.56943 39.4198 1.56942 37.4839 3.50538C35.5479 5.44133 35.5479 8.58014 37.4839 10.5161C39.4198 12.4521 42.5586 12.452 44.4946 10.5161Z" fill="#1B1B1B"/>
<path d="M16.6703 34.0258C19.4082 34.0258 21.6276 31.8063 21.6276 29.0685C21.6276 26.3306 19.4082 24.1111 16.6703 24.1111C13.9324 24.1111 11.7129 26.3306 11.7129 29.0685C11.7129 31.8063 13.9324 34.0258 16.6703 34.0258Z" fill="#1B1B1B"/>
</svg>
